<mxfile host="app.diagrams.net" modified="2023-11-24T15:14:05.809Z" agent="Mozilla/5.0 (Windows NT 10.0; Win64; x64; rv:120.0) Gecko/20100101 Firefox/120.0" etag="UgPYB5UYlnWrZaqL3PIL" version="22.1.3" type="device">
  <diagram name="Page-1" id="74b105a0-9070-1c63-61bc-23e55f88626e">
    <mxGraphModel dx="2074" dy="1030" grid="1" gridSize="10" guides="1" tooltips="1" connect="1" arrows="1" fold="1" page="1" pageScale="1.5" pageWidth="1169" pageHeight="826" background="none" math="0" shadow="0">
      <root>
        <mxCell id="0" style=";html=1;" />
        <mxCell id="1" style=";html=1;" parent="0" />
        <mxCell id="10b056a9c633e61c-30" value="Beer Collection Application" style="text;strokeColor=none;fillColor=none;html=1;fontSize=24;fontStyle=1;verticalAlign=middle;align=center;" parent="1" vertex="1">
          <mxGeometry x="160" y="40" width="720" height="40" as="geometry" />
        </mxCell>
        <mxCell id="-Z-lN06GlJFzYJhmYjL0-1" value="CollectionÂ &#xa;SQLite Database" style="strokeWidth=2;dashed=0;align=center;fontSize=12;verticalLabelPosition=bottom;verticalAlign=top;shape=mxgraph.eip.message_store;fillColor=#c0f5a9" vertex="1" parent="1">
          <mxGeometry x="687.75" y="120" width="150" height="90" as="geometry" />
        </mxCell>
        <mxCell id="-Z-lN06GlJFzYJhmYjL0-15" style="edgeStyle=orthogonalEdgeStyle;rounded=0;orthogonalLoop=1;jettySize=auto;html=1;exitX=0.5;exitY=1;exitDx=0;exitDy=0;entryX=0.5;entryY=0;entryDx=0;entryDy=0;" edge="1" parent="1" source="-Z-lN06GlJFzYJhmYjL0-2" target="-Z-lN06GlJFzYJhmYjL0-8">
          <mxGeometry relative="1" as="geometry" />
        </mxCell>
        <mxCell id="-Z-lN06GlJFzYJhmYjL0-2" value="Beers API" style="strokeWidth=2;dashed=0;align=center;fontSize=12;shape=rect;verticalLabelPosition=bottom;verticalAlign=top;fillColor=#c0f5a9" vertex="1" parent="1">
          <mxGeometry x="201.75" y="251" width="150" height="51" as="geometry" />
        </mxCell>
        <mxCell id="-Z-lN06GlJFzYJhmYjL0-8" value="Home Page" style="swimlane;" vertex="1" parent="1">
          <mxGeometry x="176.75" y="414" width="200" height="117" as="geometry" />
        </mxCell>
        <mxCell id="-Z-lN06GlJFzYJhmYjL0-9" value="Beer Details Page" style="swimlane;" vertex="1" parent="1">
          <mxGeometry x="421.75" y="414" width="200" height="117" as="geometry" />
        </mxCell>
        <mxCell id="-Z-lN06GlJFzYJhmYjL0-10" value="My Collection Page" style="swimlane;" vertex="1" parent="1">
          <mxGeometry x="661.75" y="414" width="200" height="117" as="geometry" />
        </mxCell>
        <mxCell id="-Z-lN06GlJFzYJhmYjL0-11" value="NextJS API" style="strokeWidth=2;dashed=0;align=center;fontSize=12;shape=rect;verticalLabelPosition=bottom;verticalAlign=top;fillColor=#c0f5a9" vertex="1" parent="1">
          <mxGeometry x="440.75" y="251" width="150" height="51" as="geometry" />
        </mxCell>
        <mxCell id="-Z-lN06GlJFzYJhmYjL0-16" value="" style="endArrow=classic;html=1;rounded=0;entryX=0.5;entryY=0;entryDx=0;entryDy=0;exitX=1;exitY=0.5;exitDx=0;exitDy=0;" edge="1" parent="1" source="-Z-lN06GlJFzYJhmYjL0-11" target="-Z-lN06GlJFzYJhmYjL0-10">
          <mxGeometry width="50" height="50" relative="1" as="geometry">
            <mxPoint x="711.75" y="562" as="sourcePoint" />
            <mxPoint x="761.75" y="512" as="targetPoint" />
          </mxGeometry>
        </mxCell>
        <mxCell id="-Z-lN06GlJFzYJhmYjL0-21" value="" style="endArrow=classic;html=1;rounded=0;entryX=0.5;entryY=0;entryDx=0;entryDy=0;exitX=1;exitY=0.5;exitDx=0;exitDy=0;" edge="1" parent="1" source="-Z-lN06GlJFzYJhmYjL0-2" target="-Z-lN06GlJFzYJhmYjL0-9">
          <mxGeometry width="50" height="50" relative="1" as="geometry">
            <mxPoint x="284.75" y="319" as="sourcePoint" />
            <mxPoint x="1031.75" y="502" as="targetPoint" />
          </mxGeometry>
        </mxCell>
        <mxCell id="-Z-lN06GlJFzYJhmYjL0-22" value="" style="endArrow=classic;html=1;rounded=0;entryX=0.47;entryY=-0.006;entryDx=0;entryDy=0;exitX=0.5;exitY=1;exitDx=0;exitDy=0;entryPerimeter=0;" edge="1" parent="1" source="-Z-lN06GlJFzYJhmYjL0-11" target="-Z-lN06GlJFzYJhmYjL0-9">
          <mxGeometry width="50" height="50" relative="1" as="geometry">
            <mxPoint x="506.75" y="312" as="sourcePoint" />
            <mxPoint x="891.75" y="502" as="targetPoint" />
          </mxGeometry>
        </mxCell>
        <mxCell id="-Z-lN06GlJFzYJhmYjL0-24" value="Authentication" style="strokeWidth=2;dashed=0;align=center;fontSize=12;shape=rect;verticalLabelPosition=bottom;verticalAlign=top;fillColor=#c0f5a9" vertex="1" parent="1">
          <mxGeometry x="180.75" y="601" width="682.5" height="70" as="geometry" />
        </mxCell>
        <mxCell id="-Z-lN06GlJFzYJhmYjL0-25" value="Google Provider" style="strokeWidth=1;dashed=0;align=center;fontSize=12;shape=rect;fillColor=#ffffff;strokeColor=#000000;" vertex="1" parent="-Z-lN06GlJFzYJhmYjL0-24">
          <mxGeometry x="386.74999999999994" y="19.444444444444446" width="182" height="31.11111111111111" as="geometry" />
        </mxCell>
        <mxCell id="-Z-lN06GlJFzYJhmYjL0-28" value="Next-Auth" style="strokeWidth=1;dashed=0;align=center;fontSize=12;shape=rect;fillColor=#ffffff;strokeColor=#000000;" vertex="1" parent="-Z-lN06GlJFzYJhmYjL0-24">
          <mxGeometry x="74.7229562043795" y="19.444444444444446" width="182" height="31.11111111111111" as="geometry" />
        </mxCell>
        <mxCell id="-Z-lN06GlJFzYJhmYjL0-32" style="edgeStyle=orthogonalEdgeStyle;rounded=0;orthogonalLoop=1;jettySize=auto;html=1;exitX=1;exitY=0.5;exitDx=0;exitDy=0;entryX=0;entryY=0.5;entryDx=0;entryDy=0;" edge="1" parent="-Z-lN06GlJFzYJhmYjL0-24" source="-Z-lN06GlJFzYJhmYjL0-28" target="-Z-lN06GlJFzYJhmYjL0-25">
          <mxGeometry relative="1" as="geometry">
            <mxPoint x="108.6021897810219" y="4.666666666666667" as="sourcePoint" />
            <mxPoint x="107.6058394160584" y="-54.44444444444444" as="targetPoint" />
          </mxGeometry>
        </mxCell>
        <mxCell id="-Z-lN06GlJFzYJhmYjL0-29" style="edgeStyle=orthogonalEdgeStyle;rounded=0;orthogonalLoop=1;jettySize=auto;html=1;exitX=0.145;exitY=-0.044;exitDx=0;exitDy=0;entryX=0.5;entryY=1;entryDx=0;entryDy=0;exitPerimeter=0;" edge="1" parent="1" source="-Z-lN06GlJFzYJhmYjL0-24" target="-Z-lN06GlJFzYJhmYjL0-8">
          <mxGeometry relative="1" as="geometry">
            <mxPoint x="286.75" y="312" as="sourcePoint" />
            <mxPoint x="286.75" y="424" as="targetPoint" />
          </mxGeometry>
        </mxCell>
        <mxCell id="-Z-lN06GlJFzYJhmYjL0-30" style="edgeStyle=orthogonalEdgeStyle;rounded=0;orthogonalLoop=1;jettySize=auto;html=1;entryX=0.5;entryY=1;entryDx=0;entryDy=0;exitX=0.5;exitY=0;exitDx=0;exitDy=0;" edge="1" parent="1" source="-Z-lN06GlJFzYJhmYjL0-24" target="-Z-lN06GlJFzYJhmYjL0-9">
          <mxGeometry relative="1" as="geometry">
            <mxPoint x="521.75" y="692" as="sourcePoint" />
            <mxPoint x="286.75" y="622" as="targetPoint" />
          </mxGeometry>
        </mxCell>
        <mxCell id="-Z-lN06GlJFzYJhmYjL0-31" style="edgeStyle=orthogonalEdgeStyle;rounded=0;orthogonalLoop=1;jettySize=auto;html=1;entryX=0.5;entryY=1;entryDx=0;entryDy=0;exitX=0.851;exitY=-0.044;exitDx=0;exitDy=0;exitPerimeter=0;" edge="1" parent="1" source="-Z-lN06GlJFzYJhmYjL0-24" target="-Z-lN06GlJFzYJhmYjL0-10">
          <mxGeometry relative="1" as="geometry">
            <mxPoint x="761.75" y="692" as="sourcePoint" />
            <mxPoint x="286.75" y="622" as="targetPoint" />
          </mxGeometry>
        </mxCell>
        <mxCell id="-Z-lN06GlJFzYJhmYjL0-12" value="Prisma" style="strokeWidth=1;dashed=0;align=center;fontSize=12;shape=rect;fillColor=#ffffff;strokeColor=#000000;" vertex="1" parent="1">
          <mxGeometry x="440.75" y="138" width="150" height="55" as="geometry" />
        </mxCell>
        <mxCell id="-Z-lN06GlJFzYJhmYjL0-38" value="" style="endArrow=classic;html=1;rounded=0;exitX=0.5;exitY=1;exitDx=0;exitDy=0;entryX=0.5;entryY=0;entryDx=0;entryDy=0;" edge="1" parent="1" source="-Z-lN06GlJFzYJhmYjL0-12" target="-Z-lN06GlJFzYJhmYjL0-11">
          <mxGeometry width="50" height="50" relative="1" as="geometry">
            <mxPoint x="831.75" y="521" as="sourcePoint" />
            <mxPoint x="881.75" y="471" as="targetPoint" />
          </mxGeometry>
        </mxCell>
        <mxCell id="-Z-lN06GlJFzYJhmYjL0-39" value="" style="endArrow=classic;startArrow=classic;html=1;rounded=0;exitX=1;exitY=0.5;exitDx=0;exitDy=0;entryX=0;entryY=0.5;entryDx=0;entryDy=0;entryPerimeter=0;" edge="1" parent="1" source="-Z-lN06GlJFzYJhmYjL0-12" target="-Z-lN06GlJFzYJhmYjL0-1">
          <mxGeometry width="50" height="50" relative="1" as="geometry">
            <mxPoint x="831.75" y="481" as="sourcePoint" />
            <mxPoint x="881.75" y="431" as="targetPoint" />
          </mxGeometry>
        </mxCell>
      </root>
    </mxGraphModel>
  </diagram>
</mxfile>
